<?xml version="1.0" encoding="UTF-8" standalone="no"?>
<!-- Created with Inkscape (http://www.inkscape.org/) -->

<svg id="svg5560" height="230.73003" width="124.30334" version="1.1" viewBox="0 0 443.4811 825.21871" sodipodi:docname="7Segment5.SVG" inkscape:version="1.2.1 (9c6d41e, 2022-07-14)" xmlns:inkscape="http://www.inkscape.org/namespaces/inkscape" xmlns:sodipodi="http://sodipodi.sourceforge.net/DTD/sodipodi-0.dtd" xmlns="http://www.w3.org/2000/svg" xmlns:svg="http://www.w3.org/2000/svg">
<defs id="defs144" />
<sodipodi:namedview id="namedview142" pagecolor="#ffffff" bordercolor="#666666" borderopacity="1.0" inkscape:showpageshadow="2" inkscape:pageopacity="0.0" inkscape:pagecheckerboard="0" inkscape:deskcolor="#d1d1d1" showgrid="false" inkscape:zoom="1.8162687" inkscape:cx="62.215466" inkscape:cy="116.72282" inkscape:window-width="1652" inkscape:window-height="792" inkscape:window-x="0" inkscape:window-y="25" inkscape:window-maximized="0" inkscape:current-layer="svg5560" />
<g id="7seg" transform="translate(-703.36265,-1024.2644)">
<rect id="bgbord" height="825.21869" width="444.57776" y="1024.2644" x="702.81189" style="fill:none;stroke-width:0.875617" />
<path d="m 83.854,123.12 -18.932,290.32 28.619,17.57 75.519,-45.97 14.2,-216.17 z" transform="translate(659.49,986.85)" id="path1" />
<path d="m 178.52,60 c 0,0 -30.59,5.557 -44.18,12.621 -12.6,6.555 -33.13,26.824 -33.13,26.824 l 104.14,48.915 145.16,-1.58 55.22,-80.469 z" transform="translate(659.49,986.85)" id="path2" />
<path d="m 427.82,77.355 -58.38,86.785 -9.47,219.32 80.47,53.64 20.52,-20.51 14.2,-277.7 c 0,0 -7.29,-24.26 -17.63,-36.46 -6.8,-8.03 -29.71,-25.075 -29.71,-25.075 z" transform="translate(659.49,986.85)" id="path3" />
<path d="m 451.494,478.12 -97.83,34.72 -7.89,225.63 52.07,83.62 c 0,0 31.57,-18.32 41.03,-33.13 9.33,-14.63 12.62,-50.49 12.62,-50.49 l 11.04,-244.57 z" transform="translate(659.49,986.85)" id="path4" />
<path d="m 324.484,753.09 -148.59,0.5 -101.57,49.03 c 0.002,0 17.693,15.28 28,20.54 9.68,4.94 31.04,9.98 31.04,9.98 l 243.15,0.99 z" transform="translate(659.49,986.85)" id="path5" />
<path d="m 91.8,474.195 -26.221,18.4 -5.578,287.85 100.97,-47.97 8.92,-220.35 z" transform="translate(659.49,986.85)" id="path6" />
<path d="m 192.304,400.81 -83.62,50.49 69.42,34.72 157.79,7.88 92.68,-33.54 -87.92,-58.71 z" transform="translate(659.49,986.85)" id="path7" />
</g>
</svg>
